<?xml version="1.0" ?><!DOCTYPE svg  PUBLIC '-//W3C//DTD SVG 1.1//EN'  'http://www.w3.org/Graphics/SVG/1.1/DTD/svg11.dtd'><svg enable-background="new 0 0 512 512" height="512px" id="Layer_1" version="1.1" viewBox="0 0 512 512" width="512px" xml:space="preserve" xmlns="http://www.w3.org/2000/svg" xmlns:xlink="http://www.w3.org/1999/xlink"><g id="Linkedin"><g><path d="M257,40C137.708,40,41,136.706,41,256s96.706,216,216,216s216-96.706,216-216S376.294,40,257,40z M203.198,377.414    c0,1.708-0.674,3.244-1.992,4.586c-1.322,1.35-2.798,2-4.472,2h-44.316c-1.67,0-3.18-0.65-4.502-2    c-1.284-1.344-1.958-2.878-1.958-4.586V206.388c0-1.704,0.676-3.242,1.958-4.586c1.322-1.316,2.832-2.006,4.502-2.006h44.316    c1.676,0,3.15,0.626,4.472,1.932c1.318,1.286,1.992,2.82,1.992,4.66V377.414z M175.36,166.304c-17.31,0-30.36-11.094-30.36-27.224    c0-16.122,13.048-35.082,30.36-35.082c17.308,0,31.342,13.942,31.342,31.146C206.7,152.352,192.668,166.304,175.36,166.304z     M393,377.414c0,1.708-0.674,3.244-1.96,4.586c-1.316,1.35-2.83,2-4.502,2h-45.57c-1.672,0-3.12-0.65-4.342-2    c-1.188-1.344-1.798-2.878-1.798-4.586v-97.046c0-8.134-1.448-14.358-4.344-18.648c-2.894-4.264-8.75-6.432-17.556-6.432    c-5.6,0-10.26,0.952-14.058,2.814c-3.762,1.876-6.754,4.398-8.906,7.544c-2.156,3.184-3.636,6.954-4.468,11.34    c-0.87,4.388-1.288,9.108-1.288,14.162v86.266c0,1.708-0.642,3.244-1.962,4.586c-1.318,1.35-2.798,2-4.502,2h-44.282    c-1.674,0-3.184-0.65-4.5-2c-1.322-1.344-1.964-2.878-1.964-4.586V206.388c0-1.704,0.642-3.242,1.964-4.586    c1.316-1.316,2.828-2.006,4.5-2.006h43.03c3.472,0,5.404,1.346,5.822,4.11c0.444,2.714,0.642,5.304,0.642,7.796    c5.98-5.71,12.8-9.768,20.418-12.222c7.626-2.464,15.534-3.708,23.734-3.708c19.974,0,35.92,5.108,47.916,15.336    C387.022,221.37,393,248.862,393,270.068L393,377.414L393,377.414z"/><path d="M257,0C115.614,0,1,114.614,1,256s114.614,256,256,256s256-114.614,256-256S398.386,0,257,0z M257,484.002    c-125.92,0-228-102.08-228-228.002S131.08,28,257,28s228,102.08,228,228S382.92,484.002,257,484.002z"/></g></g></svg>