<svg xmlns="http://www.w3.org/2000/svg" width="151.1" height="42.1" viewBox="1 0 151.1 42.1"><path fill="#73B8C4" d="M29.1 10.2l.2-.3C27.6 9 25.8 8.4 24 8.1c-.7-.1-1.5-.1-2.2-.1-5.9 0-11.1 3.5-13.1 8.8l1.9.7C12.3 13 16.8 10 21.8 10c.6 0 1.3 0 1.9.1 3.4.5 6.7 2.4 9.7 5.5l1.1-1.1c-1.4-1.5-3.3-3.1-5.4-4.3z"/><path fill="#73B8C4" d="M15.3 33.8c-5-2.4-8.3-7.3-8.3-12.7 0-2.7.8-5.3 2.3-7.6.6-.9 1.2-1.7 2-2.4l.9 1c-.7.7-1.3 1.4-1.8 2.2-1.4 2-2.1 4.4-2.1 6.8 0 4.9 2.9 9.3 7.6 11.5l-.6 1.2z"/><path fill="#73B8C4" d="M40 22.8l-.6-1.4c-.1-.1-.1-.2-.2-.4-1 1.9-6.4 11.4-15.2 12.6-.7.1-1.5.3-2.2.3-2.1 0-4-.4-5.9-1.3l-.7 1.2c2 1 4.2 1.4 6.5 1.4.8 0 1.6-.1 2.4-.2 8.6-1.1 14-8.8 15.9-12.2z"/><path fill="#EC7623" d="M41.8 29.3c-1.7 2.3-3.6 4.4-5.7 6l.5.6c2-1.6 3.9-3.6 5.6-5.9 3.5 4.8 9.4 10.5 17.8 11.7l.2-1.4c-8.7-1.2-14.5-7.4-17.9-12.6-.1-.2-.5 1.6-.5 1.6z"/><path fill="#EFB61D" d="M64.5 35.2c-1.1.1-2.3 0-3.4-.1-2.6-.4-5.1-1.4-7.5-3.1l-.7 1c2.5 1.8 5.2 2.9 8.1 3.3.8.1 1.7.2 2.5.2h1v-1.3z"/><path fill="#EC7623" d="M40.7 22.5l-.7.3-.6-1.4c-.4-.9-2.1-3.9-4.8-6.8l-1.1 1.1c2.4 2.5 3.8 5 4.3 5.9l2 3.6 1.7-1-.8-1.7z"/><path fill="#73B8C4" d="M63.4 34c-.7 0-1.5-.1-2.2-.2-9.1-1.3-14.4-10.5-15.4-12.4l1.4-.7c.6 1.1 5.7 10.3 14.2 11.6.7.1 1.3.1 2 .1V34z"/><path fill="#02838D" d="M76.1 17.6c-.6-2-1.7-3.8-3.3-5.3-2-1.9-4.6-3.2-7.4-3.6l.3-1.8c3.2.5 6.1 1.9 8.4 4 1.8 1.7 3.1 3.8 3.8 6l-1.8.7z"/><path fill="#02838D" d="M51.7 11.7l-.9-1c3.1-2.7 6.5-4.4 10-4.9.8-.1 1.7-.2 2.5-.2 4.3 0 8.4 1.6 11.4 4.5l-.9.9c-2.7-2.5-6.4-4-10.4-4-.8 0-1.6.1-2.3.2-3.3.5-6.5 2-9.4 4.5z"/><path fill="#EFB61D" d="M45.1 24.4l-4.5-2.2 1.1-2.3c.7-1.5 3.3-6.6 8-10.7l1.9-1.7 3.3 3.8-1.9 1.8c-4 3.5-6.3 8.2-6.8 9l-1.1 2.3z"/><path fill="#02838D" d="M6.8 27.1c-.8-1.9-1.3-3.9-1.3-6 0-4.2 1.7-8.1 4.7-11 1.1-1 2.3-1.9 3.6-2.6l.7 1.4c-1.2.6-2.3 1.4-3.2 2.3C8.6 13.8 7 17.3 7 21c0 1.9.4 3.7 1.1 5.4l-1.3.7z"/><path fill="#EFB61D" d="M12.2 12.1l-.9-1C14.1 8.5 17.8 7 21.8 7c.8 0 1.6.1 2.3.2 1.9.3 3.8.9 5.6 1.9l-.7 1.2c-1.7-.9-3.4-1.5-5.1-1.7-.7-.1-1.4-.2-2.2-.2a14 14 0 0 0-9.5 3.7zM2.9 21.1H2C2 16 4.1 11.2 7.9 7.6l.6.6c-3.7 3.4-5.6 8-5.6 12.9z"/><path fill="#02838D" d="M35.9 6.8c-3.4-2.7-7.1-4.3-11-4.9-1-.1-2.1-.2-3.1-.2-4.1 0-8 1.1-11.3 3.3l-.6-.9C13.4 1.8 17.5.6 21.8.6c1.1 0 2.2.1 3.2.2 4.1.6 8 2.3 11.5 5.1l-.6.9zM43.7 14.1l-2.2-1.5C45 7.6 51.1 1.4 60 .1l.4 2.7c-8 1.1-13.5 6.7-16.7 11.3z"/><path fill="#73B8C4" d="M46.2 14.4l-1.6-1.2C47.7 9.1 53 4.1 60.5 3c1-.1 2-.2 2.9-.2 2.5 0 5 .5 7.3 1.4L70 6c-2.1-.8-4.3-1.2-6.6-1.2-.9 0-1.8.1-2.7.2-6.8.9-11.6 5.6-14.5 9.4z"/><path fill="#73B8C4" d="M43.1 17.6l-2.2-.9.6-1.6.1-.1c2.8-4.4 9-12.1 18.6-13.5 1-.1 2.1-.2 3.2-.2v2.3c-.9 0-1.9.1-2.8.2-8.3 1.2-13.8 7.4-16.9 12.4l-.6 1.4z"/><path fill="#73B8C4" d="M43.1 15.2L42 13.8c-1.9-2.6-4-4.9-6.2-6.7l1-1.3c2.4 1.9 4.6 4.3 6.5 7l1.1 1.3-1.3 1.1z"/><path fill="#EC7623" d="M77.6 7.3c-3.8-3.6-8.8-5.6-14.2-5.6-1 0-2.1.1-3.1.2L60.1.8c1.1-.2 2.2-.2 3.2-.2 5.7 0 11 2.1 14.9 5.9l-.6.8z"/><path fill="#02838D" d="M77.6 34.6c-3.8 3.6-8.8 5.6-14.2 5.6-1 0-2.1-.1-3.1-.2l-.2 1.1c1.1.2 2.2.2 3.2.2 5.7 0 11-2.1 14.9-5.9l-.6-.8zM24.6 38.4l-.4-2.8c11.4-1.6 17-14.8 17.1-15 .3-.6 6.3-14.9 19.3-16.7l.4 2.8c-11.4 1.6-17 14.8-17.1 15-.2.6-6.3 14.8-19.3 16.7z"/><path fill="#02838D" d="M12.7 35.5l1.2-2.1c3.1 1.8 6.6 2.4 10.2 1.9l.4 2.5c2.4-.3 4.7-1.2 6.9-2.4l-2.1-3.6c-1.7 1-3.6 1.6-5.4 1.9-.7.1-1.4.2-2.1.2-3.6 0-7-1.3-9.5-3.7-1.2-1.2-2.2-2.5-2.8-4l-3.6 1.6c.9 2 2.1 3.7 3.7 5.3l-.2-.1c1 1 2.1 1.8 3.3 2.5z"/><path fill="#02838D" d="M21.8 39c-5 0-9.6-1.8-13.2-5.2l.8-.8c3.3 3.1 7.7 4.9 12.4 4.9.9 0 1.8-.1 2.7-.2 9.4-1.3 15-9.3 17.6-13.9l.6-1.5 1 .4-.7 1.6c-2.6 4.8-8.6 13.1-18.4 14.5-.9.1-1.8.2-2.8.2z"/><path fill="#02838D" d="M21.8 42.1c-5.8 0-11.2-2.2-15.3-6.1L8 34.5C11.7 38 16.6 40 21.8 40c1 0 2-.1 3-.2 3.9-.6 7.6-2.2 10.9-4.9l1.3 1.6c-3.6 3-7.7 4.8-11.9 5.4-1.1.1-2.2.2-3.3.2z"/><path fill="#EFB61D" d="M24.9 40.4l-.3-1.8c8.4-1.2 14-7.5 17.2-12.5.1-.2 1-1.7 1.3-2.3l1.6.8c-.4.7-1.3 2.3-1.3 2.4C40 32.5 34 39.1 24.9 40.4z"/><path fill="#73B8C4" d="M12.8 35.4c-5.2-3-8.4-8.4-8.4-14.3 0-.9.1-1.7.2-2.6l1.3.2c-.1.8-.2 1.6-.2 2.4 0 5.4 2.9 10.4 7.7 13.2l-.6 1.1z"/><path fill="#EC7623" d="M6.5 18.8L4 18.5C4.7 14 7.2 10 11 7.3c3.9-2.8 8.7-3.9 13.6-3.2 1.1.2 2.2.4 3.3.8l-.8 2.4c-.9-.3-1.9-.5-2.8-.7-8.7-1.3-16.5 4.1-17.8 12.2z"/><path fill="#73B8C4" d="M55.7 32l-.2.3c1.7.9 3.5 1.5 5.3 1.8.7.1 1.5.2 2.2.2 5.9 0 11.1-3.5 13.1-8.8l-1.9-.7c-1.7 4.5-6.1 7.5-11.2 7.5-.6 0-1.3 0-1.9-.1-3.4-.5-6.7-2.4-9.7-5.5l-1.1 1.1c1.4 1.4 3.3 3 5.4 4.2z"/><path fill="#EFB61D" d="M72.6 30.1l.9 1c-2.8 2.7-6.5 4.1-10.5 4.1-.8 0-1.6-.1-2.3-.2-1.9-.3-3.8-.9-5.6-1.9l.7-1.2c1.7.9 3.4 1.5 5.1 1.7.7.1 1.4.2 2.2.2 3.6.1 7-1.3 9.5-3.7zM82 21.1h.8c0 5.1-2.1 9.9-5.8 13.5l-.6-.6C80 30.6 82 26 82 21.1z"/><path fill="#EC7623" d="M78.3 23.4l2.5.4c-.7 4.5-3.2 8.5-7 11.2-3.9 2.8-8.7 3.9-13.6 3.2-1.1-.2-2.2-.4-3.2-.8l.8-2.4c.9.3 1.9.5 2.8.7 8.6 1.2 16.4-4.2 17.7-12.3z"/><path fill="#EFB61D" d="M6.2 36.4c-2.3-2.2-4-4.8-5.1-7.6L4 27.7c1 2.4 2.4 4.6 4.4 6.5l-2.2 2.2z"/><path fill="#73B8C4" d="M21.8 40.7c-5.4 0-10.5-2-14.3-5.7-3.5-3.3-5.6-7.7-5.9-12.4v-1.4l1.8-.1v1.4c.3 4.3 2.2 8.2 5.4 11.3 3.5 3.3 8.1 5.2 13 5.2.9 0 1.9-.1 2.9-.2l.3 1.8c-1.1 0-2.2.1-3.2.1z"/><path fill="#EFB61D" d="M30.2 34.3l-.6-1 .5-.3c6.4-3.7 10-10.8 10.7-12.1l.2-.5 1 .5-.2.5c-.7 1.4-4.4 8.8-11.2 12.6l-.4.3z"/><path fill="#02838D" d="M44.4 20.4c-.1-.1-.5-1.1-1.2-2.5l.3-.2C40.8 12.8 34.8 4.4 24.7 3c-1-.1-2-.2-2.9-.2v1.9c.9 0 1.8.1 2.7.2 1.1.2 2.1.4 3.1.7l-.7 2.2c9.3 3 13.9 13.9 14 14 .3.6 6.4 15.1 19.7 17l.5-3.9C50 33.4 44.5 20.5 44.4 20.4z"/><path fill="#EFB61D" d="M81 21.1h-1.6c0-4.3-1.9-8.4-5.2-11.3-3.6-3.1-8.4-4.5-13.3-3.8l-.2-1.5c5.3-.8 10.6.7 14.5 4.1 3.7 3.2 5.8 7.7 5.8 12.5zM19.8 14.5H24v13.1h-4.2z"/><path fill="#02838D" d="M15.4 19h13.1v4.2H15.4z"/><path fill="#EC7623" d="M56.3 19h13.1v4.2H56.3z"/><path fill="#73B8C4" d="M84.8 23l-1.7-.2c.1-.6.1-1.2.1-1.8 0-5.2-2.1-10-5.8-13.6l1.2-1.2C82.7 10.1 85 15.4 85 21c-.1.7-.1 1.4-.2 2z"/><path fill="#02838D" d="M79.1 24l-1.1-.2c.2-.9.3-1.8.3-2.7 0-3.8-1.5-7.3-4.3-10l.8-.8c3 2.9 4.7 6.7 4.7 10.8-.1 1-.2 1.9-.4 2.9z"/><path fill="#EC7623" d="M77.2 24.3l-2.5-.6c.2-.8.3-1.7.3-2.5 0-6-5.2-10.8-11.5-10.8-.6 0-1.3 0-1.9.1-.2 0-.3.1-.5.1L60.6 8c.2 0 .4-.1.6-.1.8-.1 1.5-.2 2.2-.2 7.8 0 14.1 6 14.1 13.4.1 1.1-.1 2.1-.3 3.2z"/><path fill="#02838D" d="M56.3 10.9l-.3-.6c-6 3.3-9.5 9.8-10.1 11.1l-.6 1.3-.7-.3-.3.6 2.4 1.1 1.1-2.4c.6-1.2 5.5-9.7 13.3-11.2l-.2-1.3c-1.6.3-3.2.9-4.6 1.7z"/><path fill="#73B8C4" d="M63.4 39.6c-1 0-2-.1-3-.2-4.4-.6-8.5-2.7-12.2-6.1l1.6-1.7c3.3 3.1 7 4.9 10.9 5.5 1.1.1 2.1.2 3.2.2l.1 2.3h-.6z"/><path fill="#01838C" d="M92.6 27.6l2.8-9h2.5l2.9 9h-2.4l-.5-1.8h-2.6l-.5 1.8h-2.2zm4-6.9l-.8 3.3h1.7l-.9-3.3zM101.6 18.6h3.6c2.5 0 3.5 1.2 3.5 3 0 1.2-.5 2.1-1.5 2.7l1.7 3.3h-2.6l-1.3-2.9h-1.2v2.9h-2.2v-9zm4.7 3c0-.8-.3-1.2-1.3-1.2h-1.2V23h1.2c.8-.1 1.3-.4 1.3-1.4zM110.1 18.6h3c3.4 0 4.5 1.6 4.5 4.4 0 2.1-.7 4.6-4.4 4.6h-3l-.1-9zm2.2 1.8v5.4h.8c1.8 0 2-1.2 2-2.6 0-1.7-.2-2.7-2.1-2.7h-.7zM123.8 18.6h2.1v5.9c0 2.6-2.1 3.2-3.6 3.2-1.6 0-3.5-.5-3.5-3.2v-5.9h2.2v5.5c0 1.5.5 1.8 1.4 1.8 1 0 1.4-.5 1.4-1.8v-5.5zM127.5 25.7h2.3v-5.4h-2.3v-1.8h6.9v1.8h-2.3v5.4h2.3v1.8h-6.9v-1.8zM137.9 27.6h-2.1v-9.1h2.4l3 5.4v-5.4h2.1v9H141l-3-5.8-.1 5.9zM151.9 23.1c0 2.6-1 4.6-3.9 4.6-2.6 0-3.8-1.6-3.8-4.5 0-2.7 1.1-4.7 3.8-4.7 2.7 0 3.9 1.1 3.9 4.6zm-2.3 0c0-2.2-.2-2.8-1.5-2.8-1.2 0-1.4.7-1.4 2.9 0 1.8.2 2.7 1.4 2.7 1.3 0 1.5-.7 1.5-2.8z"/><g fill="#9D846E"><path d="M92.9 32.3h3c3.4 0 4.5 1.6 4.5 4.4 0 2.1-.7 4.6-4.4 4.6h-3l-.1-9zm2.2 1.8v5.4h.8c1.8 0 2-1.2 2-2.6 0-1.7-.2-2.7-2.1-2.7h-.7zM100.7 41.3l2.8-9h2.5l2.9 9h-2.4l-.5-1.8h-2.6l-.5 1.8h-2.2zm4.1-6.8l-.8 3.3h1.7l-.9-3.3zM113.3 36l1.6-3.7h2.2l-2.8 5.4v3.5h-2.2v-3.5l-2.9-5.5h2.4l1.7 3.8z"/></g><path fill="#EA7625" d="M124.9 34.7c0-1-.7-1.6-1.6-1.6-.7 0-1.4.4-1.9 1l-.6-.7c.4-.5 1.4-1.2 2.7-1.2 1.4 0 2.5.8 2.5 2.4 0 1.8-2.4 4.4-4.2 5.8h4.6v1h-6v-.7c1.7-1.4 4.5-4.2 4.5-6zM135.2 36.5c0 2.2-.6 4.9-3.5 4.9-2.3 0-3.4-1.6-3.4-4.4 0-2.6.7-4.8 3.5-4.8 2.4.1 3.4 1.7 3.4 4.3zm-5.1 3.2l2.6-6.4c-.3-.2-.7-.2-1.1-.2-1.8 0-2.2 1.8-2.2 3.5.1 1.3.1 2.4.7 3.1zm4-3c0-1.1-.1-2.2-.7-2.9l-2.6 6.4c.2.2.7.2 1.1.2 1.8.1 2.2-1.9 2.2-3.7zM137.1 40.3h2.6v-7.1l-2 .1v-1l3.1-.2v8.1h2.4v1h-6.1v-.9zM148.6 41.3c-2.3 0-3.1-1.7-3.1-4.3 0-3.1 1.8-4.9 4.8-4.9.3 0 .7 0 1 .1v1c-.3-.1-.7-.1-1-.1-1.9 0-3.5 1.1-3.6 3.4.7-.4 1.4-.7 2.3-.7 1.5 0 2.6.8 2.6 2.5.1 1.8-1.1 3-3 3zm0-4.6c-.8 0-1.6.3-2 .7 0 1.6.4 3 2.1 3 1.2 0 1.7-1 1.7-2 .1-1.1-.5-1.7-1.8-1.7z"/><g fill="#01838C"><path d="M92.8.7v13.5h13.5V.7H92.8zm10.9 8.1h-2.8v2.8h-2.7V8.8h-2.8V6.1h2.8V3.3h2.7v2.8h2.8v2.7zM138.3.7v13.5h13.8V.7h-13.8zm11.1 8.1H141V6.1h8.4v2.7zM108 .7v13.5h13.5V.7H108zm6.8 10c-3 0-5.4-3.2-5.4-3.2s2.4-3.2 5.4-3.2c3 0 5.4 3.2 5.4 3.2s-2.5 3.2-5.4 3.2z"/><circle cx="114.8" cy="7.5" r="1.5"/><path d="M123.2.7v13.5h13.5V.7h-13.5zm7.6 8.7l-1.9 1.9-1.9-1.9-1.9-1.9 1.9-1.9 1.9 1.9 4-4 1.9 1.9-4 4z"/></g></svg>